<?xml version="1.0" encoding="UTF-8" standalone="no"?><!DOCTYPE svg PUBLIC "-//W3C//DTD SVG 1.1//EN" "http://www.w3.org/Graphics/SVG/1.1/DTD/svg11.dtd"><svg width="100%" height="100%" viewBox="0 0 2134 2134" version="1.1" xmlns="http://www.w3.org/2000/svg" xmlns:xlink="http://www.w3.org/1999/xlink" xml:space="preserve" xmlns:serif="http://www.serif.com/" style="fill-rule:evenodd;clip-rule:evenodd;stroke-linejoin:round;stroke-miterlimit:2;"><g><g><rect x="0" y="1593.33" width="2133.33" height="95.833" style="fill:#cb001c;"/><rect x="0" y="1497.5" width="2133.33" height="95.833" style="fill:#fff;"/><rect x="0" y="1401.67" width="2133.33" height="95.833" style="fill:#cb001c;"/><rect x="0" y="1305.83" width="2133.33" height="95.833" style="fill:#fff;"/><rect x="0" y="1210.42" width="2133.33" height="95.833" style="fill:#cb001c;"/><rect x="0" y="1114.58" width="2133.33" height="95.833" style="fill:#fff;"/><rect x="0" y="1018.75" width="2133.33" height="95.833" style="fill:#cb001c;"/><rect x="0" y="922.917" width="2133.33" height="95.833" style="fill:#fff;"/><rect x="0" y="827.5" width="2133.33" height="95.833" style="fill:#cb001c;"/><rect x="0" y="731.667" width="2133.33" height="95.833" style="fill:#fff;"/><rect x="0" y="635.833" width="2133.33" height="95.833" style="fill:#cb001c;"/><rect x="0" y="540" width="2133.33" height="95.833" style="fill:#fff;"/><rect x="0" y="444.583" width="2133.33" height="95.833" style="fill:#cb001c;"/><rect x="0" y="444.583" width="974.167" height="670" style="fill:#2a3560;"/><path d="M87.917,518.333l8.333,25.417l26.25,0l-21.25,15.417l7.917,25.416l-21.25,-15.833l-21.667,15.833l8.333,-25.416l-21.666,-15.417l26.666,0l8.334,-25.417Z" style="fill:#fff;fill-rule:nonzero;"/><path d="M87.917,630l8.333,25.417l26.25,-0l-21.25,15.833l7.917,25l-21.25,-15.417l-21.667,15.417l8.333,-25l-21.666,-15.833l26.666,-0l8.334,-25.417Z" style="fill:#fff;fill-rule:nonzero;"/><path d="M87.917,742.083l8.333,25.417l26.25,0l-21.25,15.417l7.917,25.416l-21.25,-15.833l-21.667,15.833l8.333,-25.416l-21.666,-15.417l26.666,0l8.334,-25.417Z" style="fill:#fff;fill-rule:nonzero;"/><path d="M87.917,853.75l8.333,25.417l26.25,-0l-21.25,15.833l7.917,25l-21.25,-15.417l-21.667,15.417l8.333,-25l-21.666,-15.833l26.666,-0l8.334,-25.417Z" style="fill:#fff;fill-rule:nonzero;"/><path d="M87.917,965.833l8.333,25l26.25,0l-21.25,15.834l7.917,25.416l-21.25,-15.833l-21.667,15.833l8.333,-25.416l-21.666,-15.834l26.666,0l8.334,-25Z" style="fill:#fff;fill-rule:nonzero;"/><path d="M165.833,577.083l8.334,25.417l26.25,0l-21.25,15.833l7.916,25l-21.25,-15.416l-21.666,15.416l8.333,-25l-21.667,-15.833l26.667,0l8.333,-25.417Z" style="fill:#fff;fill-rule:nonzero;"/><path d="M165.833,689.167l8.334,25l26.25,-0l-21.25,15.833l7.916,25.417l-21.25,-15.834l-21.666,15.834l8.333,-25.417l-21.667,-15.833l26.667,-0l8.333,-25Z" style="fill:#fff;fill-rule:nonzero;"/><path d="M165.833,800.833l8.334,25.417l26.25,0l-21.25,15.833l7.916,25l-21.25,-15.416l-21.666,15.416l8.333,-25l-21.667,-15.833l26.667,0l8.333,-25.417Z" style="fill:#fff;fill-rule:nonzero;"/><path d="M165.833,912.917l8.334,25l26.25,-0l-21.25,15.833l7.916,25.417l-21.25,-15.834l-21.666,15.834l8.333,-25.417l-21.667,-15.833l26.667,-0l8.333,-25Z" style="fill:#fff;fill-rule:nonzero;"/><path d="M244.583,518.333l8.334,25.417l26.666,0l-21.666,15.417l8.333,25.416l-21.667,-15.833l-21.666,15.833l8.333,-25.416l-21.667,-15.417l26.667,0l8.333,-25.417Z" style="fill:#fff;fill-rule:nonzero;"/><path d="M244.583,630l8.334,25.417l26.666,-0l-21.666,15.833l8.333,25l-21.667,-15.417l-21.666,15.417l8.333,-25l-21.667,-15.833l26.667,-0l8.333,-25.417Z" style="fill:#fff;fill-rule:nonzero;"/><path d="M244.583,742.083l8.334,25.417l26.666,0l-21.666,15.417l8.333,25.416l-21.667,-15.833l-21.666,15.833l8.333,-25.416l-21.667,-15.417l26.667,0l8.333,-25.417Z" style="fill:#fff;fill-rule:nonzero;"/><path d="M244.583,853.75l8.334,25.417l26.666,-0l-21.666,15.833l8.333,25l-21.667,-15.417l-21.666,15.417l8.333,-25l-21.667,-15.833l26.667,-0l8.333,-25.417Z" style="fill:#fff;fill-rule:nonzero;"/><path d="M244.583,965.833l8.334,25l26.666,0l-21.666,15.834l8.333,25.416l-21.667,-15.833l-21.666,15.833l8.333,-25.416l-21.667,-15.834l26.667,0l8.333,-25Z" style="fill:#fff;fill-rule:nonzero;"/><path d="M322.5,577.083l8.333,25.417l26.667,0l-21.667,15.833l8.334,25l-21.667,-15.416l-21.667,15.416l8.334,-25l-21.667,-15.833l26.667,0l8.333,-25.417Z" style="fill:#fff;fill-rule:nonzero;"/><path d="M322.5,689.167l8.333,25l26.667,-0l-21.667,15.833l8.334,25.417l-21.667,-15.834l-21.667,15.834l8.334,-25.417l-21.667,-15.833l26.667,-0l8.333,-25Z" style="fill:#fff;fill-rule:nonzero;"/><path d="M322.5,800.833l8.333,25.417l26.667,0l-21.667,15.833l8.334,25l-21.667,-15.416l-21.667,15.416l8.334,-25l-21.667,-15.833l26.667,0l8.333,-25.417Z" style="fill:#fff;fill-rule:nonzero;"/><path d="M322.5,912.917l8.333,25l26.667,-0l-21.667,15.833l8.334,25.417l-21.667,-15.834l-21.667,15.834l8.334,-25.417l-21.667,-15.833l26.667,-0l8.333,-25Z" style="fill:#fff;fill-rule:nonzero;"/><path d="M401.25,518.333l8.333,25.417l26.667,0l-21.667,15.417l8.334,25.416l-21.667,-15.833l-21.25,15.833l8.333,-25.416l-21.666,-15.417l26.666,0l7.917,-25.417Z" style="fill:#fff;fill-rule:nonzero;"/><path d="M401.25,630l8.333,25.417l26.667,-0l-21.667,15.833l8.334,25l-21.667,-15.417l-21.25,15.417l8.333,-25l-21.666,-15.833l26.666,-0l7.917,-25.417Z" style="fill:#fff;fill-rule:nonzero;"/><path d="M401.25,742.083l8.333,25.417l26.667,0l-21.667,15.417l8.334,25.416l-21.667,-15.833l-21.25,15.833l8.333,-25.416l-21.666,-15.417l26.666,0l7.917,-25.417Z" style="fill:#fff;fill-rule:nonzero;"/><path d="M401.25,853.75l8.333,25.417l26.667,-0l-21.667,15.833l8.334,25l-21.667,-15.417l-21.25,15.417l8.333,-25l-21.666,-15.833l26.666,-0l7.917,-25.417Z" style="fill:#fff;fill-rule:nonzero;"/><path d="M401.25,965.833l8.333,25l26.667,0l-21.667,15.834l8.334,25.416l-21.667,-15.833l-21.25,15.833l8.333,-25.416l-21.666,-15.834l26.666,0l7.917,-25Z" style="fill:#fff;fill-rule:nonzero;"/><path d="M479.167,577.083l8.333,25.417l26.667,0l-21.667,15.833l8.333,25l-21.666,-15.416l-21.25,15.416l7.916,-25l-21.25,-15.833l26.667,0l7.917,-25.417Z" style="fill:#fff;fill-rule:nonzero;"/><path d="M479.167,689.167l8.333,25l26.667,-0l-21.667,15.833l8.333,25.417l-21.666,-15.834l-21.25,15.834l7.916,-25.417l-21.25,-15.833l26.667,-0l7.917,-25Z" style="fill:#fff;fill-rule:nonzero;"/><path d="M479.167,800.833l8.333,25.417l26.667,0l-21.667,15.833l8.333,25l-21.666,-15.416l-21.25,15.416l7.916,-25l-21.25,-15.833l26.667,0l7.917,-25.417Z" style="fill:#fff;fill-rule:nonzero;"/><path d="M479.167,912.917l8.333,25l26.667,-0l-21.667,15.833l8.333,25.417l-21.666,-15.834l-21.25,15.834l7.916,-25.417l-21.25,-15.833l26.667,-0l7.917,-25Z" style="fill:#fff;fill-rule:nonzero;"/><path d="M558.333,518.333l8.334,25.417l26.25,0l-21.25,15.417l7.916,25.416l-21.25,-15.833l-21.666,15.833l8.333,-25.416l-21.667,-15.417l26.667,0l8.333,-25.417Z" style="fill:#fff;fill-rule:nonzero;"/><path d="M558.333,630l8.334,25.417l26.25,-0l-21.25,15.833l7.916,25l-21.25,-15.417l-21.666,15.417l8.333,-25l-21.667,-15.833l26.667,-0l8.333,-25.417Z" style="fill:#fff;fill-rule:nonzero;"/><path d="M558.333,742.083l8.334,25.417l26.25,0l-21.25,15.417l7.916,25.416l-21.25,-15.833l-21.666,15.833l8.333,-25.416l-21.667,-15.417l26.667,0l8.333,-25.417Z" style="fill:#fff;fill-rule:nonzero;"/><path d="M558.333,853.75l8.334,25.417l26.25,-0l-21.25,15.833l7.916,25l-21.25,-15.417l-21.666,15.417l8.333,-25l-21.667,-15.833l26.667,-0l8.333,-25.417Z" style="fill:#fff;fill-rule:nonzero;"/><path d="M558.333,965.833l8.334,25l26.25,0l-21.25,15.834l7.916,25.416l-21.25,-15.833l-21.666,15.833l8.333,-25.416l-21.667,-15.834l26.667,0l8.333,-25Z" style="fill:#fff;fill-rule:nonzero;"/><path d="M636.25,577.083l7.917,25.417l26.666,0l-21.25,15.833l7.917,25l-21.25,-15.416l-21.667,15.416l8.334,-25l-21.667,-15.833l26.667,0l8.333,-25.417Z" style="fill:#fff;fill-rule:nonzero;"/><path d="M636.25,689.167l7.917,25l26.666,-0l-21.25,15.833l7.917,25.417l-21.25,-15.834l-21.667,15.834l8.334,-25.417l-21.667,-15.833l26.667,-0l8.333,-25Z" style="fill:#fff;fill-rule:nonzero;"/><path d="M636.25,800.833l7.917,25.417l26.666,0l-21.25,15.833l7.917,25l-21.25,-15.416l-21.667,15.416l8.334,-25l-21.667,-15.833l26.667,0l8.333,-25.417Z" style="fill:#fff;fill-rule:nonzero;"/><path d="M636.25,912.917l7.917,25l26.666,-0l-21.25,15.833l7.917,25.417l-21.25,-15.834l-21.667,15.834l8.334,-25.417l-21.667,-15.833l26.667,-0l8.333,-25Z" style="fill:#fff;fill-rule:nonzero;"/><path d="M715,518.333l8.333,25.417l26.667,0l-21.667,15.417l8.334,25.416l-21.667,-15.833l-21.667,15.833l8.334,-25.416l-21.667,-15.417l26.667,0l8.333,-25.417Z" style="fill:#fff;fill-rule:nonzero;"/><path d="M715,630l8.333,25.417l26.667,-0l-21.667,15.833l8.334,25l-21.667,-15.417l-21.667,15.417l8.334,-25l-21.667,-15.833l26.667,-0l8.333,-25.417Z" style="fill:#fff;fill-rule:nonzero;"/><path d="M715,742.083l8.333,25.417l26.667,0l-21.667,15.417l8.334,25.416l-21.667,-15.833l-21.667,15.833l8.334,-25.416l-21.667,-15.417l26.667,0l8.333,-25.417Z" style="fill:#fff;fill-rule:nonzero;"/><path d="M715,853.75l8.333,25.417l26.667,-0l-21.667,15.833l8.334,25l-21.667,-15.417l-21.667,15.417l8.334,-25l-21.667,-15.833l26.667,-0l8.333,-25.417Z" style="fill:#fff;fill-rule:nonzero;"/><path d="M715,965.833l8.333,25l26.667,0l-21.667,15.834l8.334,25.416l-21.667,-15.833l-21.667,15.833l8.334,-25.416l-21.667,-15.834l26.667,0l8.333,-25Z" style="fill:#fff;fill-rule:nonzero;"/><path d="M792.917,577.083l8.333,25.417l26.667,0l-21.667,15.833l8.333,25l-21.666,-15.416l-21.667,15.416l8.333,-25l-21.666,-15.833l26.666,0l8.334,-25.417Z" style="fill:#fff;fill-rule:nonzero;"/><path d="M792.917,689.167l8.333,25l26.667,-0l-21.667,15.833l8.333,25.417l-21.666,-15.834l-21.667,15.834l8.333,-25.417l-21.666,-15.833l26.666,-0l8.334,-25Z" style="fill:#fff;fill-rule:nonzero;"/><path d="M792.917,800.833l8.333,25.417l26.667,0l-21.667,15.833l8.333,25l-21.666,-15.416l-21.667,15.416l8.333,-25l-21.666,-15.833l26.666,0l8.334,-25.417Z" style="fill:#fff;fill-rule:nonzero;"/><path d="M792.917,912.917l8.333,25l26.667,-0l-21.667,15.833l8.333,25.417l-21.666,-15.834l-21.667,15.834l8.333,-25.417l-21.666,-15.833l26.666,-0l8.334,-25Z" style="fill:#fff;fill-rule:nonzero;"/><path d="M871.667,518.333l8.333,25.417l26.667,0l-21.667,15.417l8.333,25.416l-21.666,-15.833l-21.25,15.833l7.916,-25.416l-21.25,-15.417l26.667,0l7.917,-25.417Z" style="fill:#fff;fill-rule:nonzero;"/><path d="M871.667,630l8.333,25.417l26.667,-0l-21.667,15.833l8.333,25l-21.666,-15.417l-21.25,15.417l7.916,-25l-21.25,-15.833l26.667,-0l7.917,-25.417Z" style="fill:#fff;fill-rule:nonzero;"/><path d="M871.667,742.083l8.333,25.417l26.667,0l-21.667,15.417l8.333,25.416l-21.666,-15.833l-21.25,15.833l7.916,-25.416l-21.25,-15.417l26.667,0l7.917,-25.417Z" style="fill:#fff;fill-rule:nonzero;"/><path d="M871.667,853.75l8.333,25.417l26.667,-0l-21.667,15.833l8.333,25l-21.666,-15.417l-21.25,15.417l7.916,-25l-21.25,-15.833l26.667,-0l7.917,-25.417Z" style="fill:#fff;fill-rule:nonzero;"/><path d="M871.667,965.833l8.333,25l26.667,0l-21.667,15.834l8.333,25.416l-21.666,-15.833l-21.25,15.833l7.916,-25.416l-21.25,-15.834l26.667,0l7.917,-25Z" style="fill:#fff;fill-rule:nonzero;"/></g><g><rect x="-20.833" y="437.5" width="2175" height="1252.78" style="fill:#009246;"/><rect x="704.167" y="437.5" width="1450" height="1252.78" style="fill:#fff;"/><rect x="1429.17" y="437.5" width="725" height="1252.78" style="fill:#ce2b37;"/></g><g><rect id="black_stripe" x="8.333" y="425" width="2137.5" height="1282.5"/><rect id="red_stripe" x="8.333" y="852.5" width="2137.5" height="855" style="fill:#d00;"/><rect id="gold_stripe" x="8.333" y="1280" width="2137.5" height="427.5" style="fill:#ffce00;"/></g></g></svg>